<svg xmlns="http://www.w3.org/2000/svg" version="1.1" id="svg9" width="4480" height="2986.6667" viewBox="0 0 4480 2986.6667" docname="doge-white-background-tripping-ballz.svg">
	<defs id="defs13" />
	<namedview id="namedview11" pagecolor="#ffffff" bordercolor="#666666" borderopacity="1.0" pageshadow="2" pageopacity="0.0" pagecheckerboard="0" showgrid="false" zoom="0.38259527" cx="2492.1898" cy="1560.3957" window-width="1920" window-height="1046" window-x="-11" window-y="-11" window-maximized="1" current-layer="g15" />
	<g groupmode="layer" label="Image" id="g15">
		<path style="fill:#fffdfd;stroke-width:1.06667" d="M 36.592208,1503.7883 V 10.454915 h 2239.999992 2240 V 1503.7883 2997.1216 h -2240 H 36.592208 Z" id="path1111" />
		<path style="fill:#ffeecc;stroke-width:1.06667" d="m 1537.9255,2423.2059 c -9.4404,-1.3301 -12.843,-6.384 -14.5632,-21.6318 -1.5529,-13.7645 -0.5561,-46.5857 1.6416,-54.0525 0.9578,-3.2541 2.4397,-15.6043 3.3277,-27.7333 1.8955,-25.8897 2.9937,-31.51 10.3011,-52.7175 l 5.5417,-16.0825 0.426,-11.7334 c 0.2936,-8.088 -0.2879,-17.2013 -1.8717,-29.3333 -1.2638,-9.68 -2.7032,-23.6 -3.199,-30.9333 -0.9922,-14.6797 -2.2193,-19.5534 -9.2005,-36.5455 -8.9945,-21.8924 -12.2616,-44.7946 -12.5137,-87.7212 l -0.1566,-26.6667 4.4907,-9.3471 c 2.5871,-5.3848 5.7097,-14.428 7.3662,-21.3333 l 2.8753,-11.9862 -1.2328,-8.5887 c -2.7892,-19.4325 -1.3873,-29.1355 6.696,-46.3447 4.6007,-9.7949 5.8969,-13.7712 6.4327,-19.7333 0.3691,-4.1067 2.047,-12.5067 3.7287,-18.6667 1.6817,-6.16 3.3701,-14.56 3.7521,-18.6666 0.3819,-4.1067 1.4312,-12.0267 2.3317,-17.6 l 1.6372,-10.1334 6.4545,-12.2666 c 3.55,-6.7467 8.3268,-15.8862 10.6151,-20.31 l 4.1604,-8.0433 0.9521,-12.2234 c 0.6513,-8.3629 1.8266,-14.75 3.721,-20.2233 4.1558,-12.0069 4.801,-15.7978 5.8782,-34.5376 0.8298,-14.4404 1.5709,-19.2469 4.6246,-29.9958 2,-7.04 4.9439,-21.2 6.542,-31.4666 5.2727,-33.874 4.8306,-32.4781 17.9102,-56.5334 2.7114,-4.9866 5.92,-12.6666 7.1301,-17.0666 1.2101,-4.4 4.1179,-12.8 6.4616,-18.6667 8.1244,-20.3364 13.6922,-36.4849 16.9446,-49.1447 2.3711,-9.2295 5.0239,-16.1344 9.6631,-25.1521 12.2431,-23.7976 14.8476,-33.6169 18.735,-70.6339 0.9151,-8.7139 2.5691,-20.7093 3.6758,-26.6564 3.4871,-18.7402 3.6143,-20.6873 3.8059,-58.2796 0.2169,-42.5927 0.7776,-46.9943 8.9411,-70.2014 3.0678,-8.721 5.5681,-17.9521 6.0196,-22.2244 1.1337,-10.728 2.7927,-15.2587 9.4519,-25.8125 3.2945,-5.2211 8.6706,-15.1934 11.947,-22.1606 3.2765,-6.9673 8.3273,-16.5473 11.224,-21.2891 6.2051,-10.1571 16.5834,-34.5611 21.7368,-51.112 9.4998,-30.5108 9.3702,-36.2907 -1.5427,-68.8 -5.8683,-17.4811 -8.9187,-34.1586 -13.6572,-74.66665 l -2.9323,-25.06666 0.1847,-26.13334 c 0.1107,-15.691 0.8344,-31.46105 1.8112,-39.46666 0.8947,-7.33334 2.4068,-21.73334 3.3604,-32 1.7845,-19.21453 2.3339,-21.71232 17.5948,-80 15.3541,-58.64419 29.5934,-90.87438 45.5124,-103.01644 15.2687,-11.64597 47.0073,-10.33588 81.7184,3.37312 25.5275,10.08197 33.9455,15.53682 45.6176,29.56027 17.7613,21.33914 78.0073,84.25496 90.5936,94.60823 5.5733,4.58453 12.2933,10.59866 14.9333,13.36473 2.64,2.76606 11.28,10.5965 19.2,17.40094 7.92,6.80446 24.24,21.84034 36.2667,33.41304 37.8783,36.44861 34.9075,35.37193 91.2,33.0521 27.0884,-1.11632 39.2572,-2.18231 77.3333,-6.77438 15.0758,-1.81818 27.7978,-2.38919 66.1334,-2.96835 49.4836,-0.74758 49.382,-0.73924 80,-6.5697 16.6976,-3.17965 62.4635,-13.63689 70.4,-16.08596 27.6314,-8.52662 56.8852,-30.31134 72.5123,-53.99861 13.8624,-21.01224 29.198,-55.62901 32.9505,-74.37881 3.0688,-15.33357 5.4571,-19.974 16.8541,-32.74687 8.1896,-9.17823 12.8081,-17.56653 17.16,-31.16665 l 3.7545,-11.73333 11.3453,-11.2 c 8.819,-8.70608 12.6402,-13.44318 17.1609,-21.27393 7.6408,-13.23562 9.2932,-15.0659 18.9943,-21.03864 4.5108,-2.77715 10.8414,-7.04303 14.0681,-9.47972 17.0712,-12.89175 27.6448,-11.69132 49.0386,5.56739 11.3087,9.12288 14.1321,14.21389 17.0583,30.75824 3.9185,22.15453 6.8237,59.54278 8.0397,103.46667 0.7912,28.57647 2.3174,41.80242 6.2779,54.4 4.769,15.16961 5.0873,18.11464 4.9973,46.23582 -0.1152,35.956 2.2773,52.54678 10.142,70.33028 14.564,32.93172 73.8925,80.25197 120.9795,96.49297 17.8335,6.151 21.4102,8.1725 39.5751,22.3666 21.938,17.1424 45.3818,33.7965 62.2916,44.2508 7.6266,4.7151 20.1066,12.6174 27.7333,17.5606 7.6267,4.9433 17.8973,11.3672 22.8236,14.2753 10.8954,6.432 24.2436,18.6836 28.1243,25.8136 8.3264,15.2983 7.9495,42.6774 -0.8589,62.3886 -10.0995,22.6002 -15.1817,41.5195 -16.1543,60.1362 -0.7136,13.6587 0.1636,18.4818 6.0892,33.4825 2.2016,5.5734 4.8005,14.2134 5.7755,19.2 3.7268,19.0627 5.0725,22.0502 20.0459,44.5034 23.588,35.3708 41.1032,72.9105 42.9392,92.03 2.1688,22.5836 6.2295,44.6769 12.0572,65.6 8.2124,29.4844 9.1407,36.757 8.8508,69.3333 -0.3485,39.1646 2.3566,53.7754 13.4288,72.5334 4.7286,8.0108 9.6823,20.616 12.2375,31.1392 l 2.2811,9.3941 0.1134,27.7333 0.1134,27.7334 -2.3696,11.7333 c -2.9832,14.7717 -4.5378,28.362 -4.5758,40 -0.03,9.1253 -1.9868,25.5512 -4.5751,38.4 -0.8797,4.3672 -3.0017,9.5871 -5.7333,14.1037 -3.2455,5.3662 -4.7949,9.5292 -6.1576,16.545 l -1.821,9.3748 1.1378,13.8549 c 0.6257,7.6201 2.1029,16.9749 3.2828,20.7883 2.3536,7.6067 3.4466,15.6424 5.9485,43.7333 4.8642,54.6175 4.6686,78.1798 -1.023,123.2 -3.925,31.0465 -5.4543,45.5901 -6.5053,61.8667 -0.341,5.28 -1.051,14.64 -1.5778,20.8 -0.5268,6.16 -1.2567,18.16 -1.6218,26.6666 -0.3652,8.5067 -1.3808,22.1867 -2.257,30.4 -4.0623,38.0799 -4.6587,49.7014 -4.6528,90.6667 0,22.88 0.478,51.3254 1.0549,63.2122 1.3197,27.1897 1.3525,27.1246 -15.5075,30.6784 l -8.5131,1.7943 -134.4,0.8778 c -147.2608,0.9617 -1450.1814,0.8916 -1457.0667,-0.078 z m 823.0034,-1123.1885 c 2.3064,-1.2343 2.7429,-5.2562 0.7833,-7.2158 -4.367,-4.3671 -11.9161,1.6237 -7.7906,6.1823 2.1661,2.3935 3.9693,2.6594 7.0073,1.0335 z m -2.8473,-44.3254 c 0.8669,-2.2593 -0.1013,-3.6371 -2.5561,-3.6371 -2.6667,0 -3.6936,1.8532 -2.0945,3.7801 1.6942,2.0415 3.8376,1.9755 4.6506,-0.143 z" id="path1109">
		</path><style>

        #path1109 {animation: col 3s linear infinite;}

        @keyframes col {
        0% {fill:red}
        50% {fill:#ccee66}
        100% {fill:red}
        }
</style>
	</g>
</svg>